<?xml version="1.0" encoding="UTF-8" standalone="no"?>
<!-- Created with Inkscape (http://www.inkscape.org/) -->
<svg xmlns:rdf="http://www.w3.org/1999/02/22-rdf-syntax-ns#" xmlns="http://www.w3.org/2000/svg" xmlns:cc="http://web.resource.org/cc/" xmlns:dc="http://purl.org/dc/elements/1.1/" xmlns:svg="http://www.w3.org/2000/svg" xmlns:inkscape="http://www.inkscape.org/namespaces/inkscape" xmlns:sodipodi="http://sodipodi.sourceforge.net/DTD/sodipodi-0.dtd" xmlns:ns1="http://sozi.baierouge.fr" xmlns:xlink="http://www.w3.org/1999/xlink" id="svg2" viewBox="0 0 256 256" version="1.0" inkscape:version="0.91 r13725">
  <g id="layer1">
    <path id="path2380" style="fill:#000000" d="m192 128a64 64 0 1 1 -128 0 64 64 0 1 1 128 0z" transform="matrix(2,0,0,2,-128,-128)"/>
  </g>
  <g id="layer2">
    <path id="path2407" style="fill:#ffffff" d="m240 128a112 112 0 1 1 -224 0 112 112 0 1 1 224 0z"/>
  </g>
  <g id="layer3">
    <path id="path2410" style="fill:#000000" d="m224 128a96 96 0 1 1 -192 0 96 96 0 1 1 192 0z"/>
  </g>
  <g id="layer4">
    <path id="path3191" style="fill:#ffffff" d="m208 128a80 80 0 1 1 -160 0 80 80 0 1 1 160 0z"/>
  </g>
  <g id="layer5">
    <path id="path3194" style="fill:#000000" d="m192 128a64 64 0 1 1 -128 0 64 64 0 1 1 128 0z"/>
  </g>
  <g id="layer6">
    <path id="path3199" style="fill:#ffffff" d="m176 128a48 48 0 1 1 -96 0 48 48 0 1 1 96 0z"/>
  </g>
  <g id="layer7">
    <path id="path3204" style="fill:#000000" d="m160 128a32 32 0 1 1 -64 0 32 32 0 1 1 64 0z"/>
  </g>
  <g id="layer8">
    <path id="path3209" style="fill:#ffffff" d="m144 128a16 16 0 1 1 -32 0 16 16 0 1 1 32 0z"/>
  </g>
  <metadata>
    <rdf:RDF>
      <cc:Work>
        <dc:format>image/svg+xml</dc:format>
        <dc:type rdf:resource="http://purl.org/dc/dcmitype/StillImage"/>
        <cc:license rdf:resource="http://creativecommons.org/licenses/publicdomain/"/>
        <dc:publisher>
          <cc:Agent rdf:about="http://openclipart.org/">
            <dc:title>Openclipart</dc:title>
          </cc:Agent>
        </dc:publisher>
        <dc:title>target black and white</dc:title>
        <dc:date>2010-11-18T02:23:45</dc:date>
        <dc:description>A target made of circles. I drew it in inkscape but saved as plain svg as the FAQ said.</dc:description>
        <dc:source>https://openclipart.org/detail/96391/target-black-and-white-by-10binary</dc:source>
        <dc:creator>
          <cc:Agent>
            <dc:title>10binary</dc:title>
          </cc:Agent>
        </dc:creator>
        <dc:subject>
          <rdf:Bag>
            <rdf:li>black</rdf:li>
            <rdf:li>target</rdf:li>
            <rdf:li>white</rdf:li>
          </rdf:Bag>
        </dc:subject>
      </cc:Work>
      <cc:License rdf:about="http://creativecommons.org/licenses/publicdomain/">
        <cc:permits rdf:resource="http://creativecommons.org/ns#Reproduction"/>
        <cc:permits rdf:resource="http://creativecommons.org/ns#Distribution"/>
        <cc:permits rdf:resource="http://creativecommons.org/ns#DerivativeWorks"/>
      </cc:License>
    </rdf:RDF>
  </metadata>
</svg>
